<svg width="53" height="18" viewBox="0 0 53 18" fill="none" xmlns="http://www.w3.org/2000/svg">
<path fill-rule="evenodd" clip-rule="evenodd" d="M5.65688 0.0821258C4.15037 0.294037 1.75857 1.10611 1.36828 1.5382C1.23038 1.69088 1.1831 1.92452 1.1574 2.57958C1.10332 3.95719 1.24304 4.04383 2.64329 3.50193C4.33794 2.84601 4.95406 2.72861 6.70443 2.72842C8.144 2.72823 8.3378 2.74871 8.85314 2.95533C10.1763 3.48588 10.6205 4.38332 10.7075 6.70156C10.7569 8.02389 10.7515 8.08014 10.5778 8.02716C8.87865 7.50873 6.09454 7.34489 4.51995 7.67064C1.27334 8.34243 -0.527083 11.0105 0.136699 14.1663C0.671792 16.7105 2.65029 18.0683 5.63904 17.9427C7.48099 17.8653 8.83646 17.2938 10.2077 16.0162L10.9055 15.3664L11.2988 16.085C11.5152 16.4802 11.8578 16.9782 12.0603 17.1916C12.5869 17.7467 12.8677 17.7242 13.8774 17.0464C14.9581 16.321 14.9827 16.2477 14.498 15.1993C14.2841 14.737 14.0737 14.2721 14.0306 14.1663C13.9873 14.0606 13.9243 11.9189 13.8906 9.40698C13.8335 5.16367 13.8148 4.78676 13.6258 4.08998C13.0444 1.94587 11.7643 0.723435 9.58127 0.227309C8.74066 0.0362625 6.55704 -0.0445017 5.65688 0.0821258ZM45.3165 0.137987C43.8352 0.406338 42.6872 1.00659 41.7868 1.98346C39.6268 4.32717 40.4321 7.85438 43.4573 9.2992C43.8917 9.50669 44.9808 9.90119 45.8774 10.1758C47.822 10.7714 48.4524 11.0194 49.0249 11.4144C50.3075 12.2992 50.066 14.2296 48.5763 14.9992C47.1117 15.7558 44.0655 15.5745 41.6815 14.5889C40.525 14.1108 40.3635 14.212 40.3635 15.4147C40.3635 16.5658 40.5805 16.8216 41.9898 17.3313C43.306 17.8073 44.4898 17.9969 46.1651 18C48.2313 18.0037 49.3404 17.7299 50.6934 16.882C53.1924 15.3161 53.7814 11.7073 51.8639 9.71043C51.0603 8.87365 50.2613 8.49348 47.2679 7.52392C45.471 6.94193 44.8894 6.68781 44.391 6.26745C43.527 5.53845 43.5127 4.12295 44.3613 3.32454C45.3551 2.38959 48.3836 2.33267 50.6403 3.20656C51.1167 3.39098 51.587 3.54193 51.6853 3.54193C51.9636 3.54193 52.0626 3.23695 52.0626 2.37959V1.58916L51.6801 1.22437C51.2073 0.773432 49.9944 0.358359 48.499 0.13568C47.2787 -0.0459448 46.3285 -0.0452715 45.3165 0.137987ZM15.8863 0.569021C15.7879 0.626518 15.7185 0.781701 15.7185 0.944673C15.7185 1.1786 17.7137 7.8887 19.95 15.1759C20.6874 17.5791 20.6337 17.5187 22.075 17.5646C23.393 17.6065 23.9073 17.4906 24.1053 17.1067C24.1829 16.9563 24.9166 14.0303 25.7358 10.6046C26.5549 7.17884 27.2448 4.35631 27.2688 4.33217C27.2928 4.30814 27.3381 4.39092 27.3693 4.51611C27.4007 4.64129 28.0901 7.48748 28.9014 10.8408C29.8685 14.8388 30.4395 17.0228 30.5599 17.1843C30.8025 17.5102 31.0135 17.5586 32.2394 17.57C33.3394 17.5802 33.8457 17.4551 34.0155 17.1311C34.2132 16.7537 39.0209 1.20447 39.0209 0.942365C39.0209 0.512485 38.7782 0.441335 37.4418 0.479602C36.1948 0.515369 36.0555 0.56306 35.8104 1.03832C35.7393 1.1761 34.939 4.16468 34.0318 7.67949C33.1247 11.1944 32.3546 14.1008 32.3207 14.1382C32.2868 14.1755 31.5946 11.3631 30.7823 7.88851C29.9702 4.4138 29.2356 1.37619 29.15 1.13822C28.9357 0.542676 28.6015 0.436239 27.1033 0.486236C26.1048 0.5196 25.9501 0.547868 25.7681 0.730262C25.5589 0.940058 25.245 2.18768 23.1925 10.9687C22.8002 12.6473 22.4575 14.0209 22.4312 14.0211C22.4048 14.0214 21.6514 11.1376 20.757 7.61257C19.7175 3.51559 19.0599 1.09784 18.934 0.91054C18.8257 0.749396 18.6297 0.587577 18.4984 0.550945C18.1227 0.446143 16.0726 0.460277 15.8863 0.569021ZM9.48538 9.94676C10.8198 10.1497 10.7321 10.0874 10.7312 10.8316C10.7295 12.3799 10.3778 13.41 9.60265 14.1369C8.9638 14.7361 8.38987 15.0489 7.51992 15.2719C5.67251 15.7457 4.22824 15.3411 3.60617 14.1755C3.42819 13.842 3.39606 13.6272 3.39606 12.7722C3.39606 11.9194 3.42848 11.702 3.60463 11.372C4.40008 9.88205 6.19705 9.4465 9.48538 9.94676Z" fill="white"/>
</svg>
