<svg width="74" height="74" viewBox="0 0 74 74" fill="none" xmlns="http://www.w3.org/2000/svg">
<path d="M37.0196 48.3453C37.2285 48.3452 37.4338 48.2913 37.6158 48.1886L51.8833 40.1502C52.4192 39.8482 52.6446 39.193 52.4078 38.6251C51.9909 37.641 51.26 36.8225 50.329 36.2974L39.3934 30.1387C37.9168 29.3098 36.115 29.3098 34.6384 30.1387L23.7101 36.2962C22.7777 36.8229 22.0465 37.6442 21.6313 38.6312C21.3945 39.1991 21.6199 39.8543 22.1559 40.1563L36.4234 48.1947C36.6059 48.2952 36.8112 48.3471 37.0196 48.3453ZM24.9025 38.4127L35.8247 32.2612C36.5658 31.849 37.4673 31.849 38.2083 32.2612L49.1366 38.4139C49.2772 38.4947 49.4101 38.5882 49.5337 38.6931L37.0196 45.7407L24.5127 38.698C24.6334 38.592 24.764 38.4977 24.9025 38.4163V38.4127Z" fill="white"/>
<path d="M20.9202 45.3204C20.6205 45.1512 20.2631 45.1172 19.9369 45.2267C19.6106 45.3362 19.3462 45.579 19.2093 45.8947C18.9444 46.4989 18.8072 47.1512 18.8062 47.8108V62.2362C18.8085 63.9886 19.7546 65.6039 21.282 66.463L32.2103 72.6193C32.9379 73.0262 33.7579 73.2391 34.5915 73.2374C35.2621 73.2374 35.8057 72.6937 35.8057 72.0231V54.4164C35.8057 53.9781 35.5695 53.5739 35.1877 53.3588L20.9202 45.3204ZM33.3772 70.4895L22.4744 64.3478C21.7115 63.9181 21.2381 63.1118 21.2347 62.2362V48.2844L33.3772 55.1255V70.4895Z" fill="white"/>
<path d="M39.4486 73.2374C40.2823 73.2395 41.1024 73.0266 41.8298 72.6193L52.7581 66.463C54.2855 65.6039 55.2316 63.9886 55.234 62.2362V47.8108C55.2329 47.1512 55.0957 46.4989 54.8308 45.8947C54.6939 45.579 54.4295 45.3362 54.1032 45.2267C53.777 45.1172 53.4196 45.1512 53.1199 45.3204L38.8524 53.3588C38.4707 53.5739 38.2344 53.9781 38.2344 54.4164V72.0231C38.2344 72.6937 38.778 73.2374 39.4486 73.2374ZM40.6629 55.1255L52.8054 48.2844V62.2362C52.802 63.1118 52.3286 63.9181 51.5657 64.3478L40.6629 70.4895V55.1255Z" fill="white"/>
<path d="M37.0198 0.382019C36.3492 0.382019 35.8056 0.92566 35.8056 1.59627V22.9502L34.2355 21.3801C33.7591 20.92 33.0018 20.9266 32.5334 21.3949C32.065 21.8633 32.0584 22.6207 32.5186 23.0971L36.1614 26.7399C36.3892 26.9683 36.6985 27.0966 37.0211 27.0966C37.3436 27.0966 37.6529 26.9683 37.8807 26.7399L41.5235 23.0971C41.9837 22.6207 41.9771 21.8633 41.5087 21.3949C41.0403 20.9266 40.283 20.92 39.8066 21.3801L38.2341 22.9502V1.59627C38.2341 0.92566 37.6905 0.382019 37.0198 0.382019Z" fill="white"/>
<path d="M1.80605 57.452H12.2317L10.6616 59.0221C10.346 59.3269 10.2194 59.7784 10.3305 60.2029C10.4416 60.6275 10.7732 60.959 11.1977 61.0702C11.6222 61.1813 12.0737 61.0547 12.3786 60.739L16.0213 57.0963C16.1347 56.9832 16.2242 56.8486 16.2848 56.7004C16.4076 56.4034 16.4076 56.0698 16.2848 55.7727C16.2242 55.6245 16.1347 55.49 16.0213 55.3769L12.3786 51.7341C11.9021 51.2739 11.1448 51.2805 10.6764 51.7489C10.208 52.2173 10.2015 52.9746 10.6616 53.4511L12.2317 55.0235H1.80605C1.13544 55.0235 0.591797 55.5672 0.591797 56.2378C0.591797 56.9084 1.13544 57.452 1.80605 57.452Z" fill="white"/>
<path d="M72.233 55.0235H61.8074L63.3774 53.4535C63.8376 52.9771 63.831 52.2197 63.3626 51.7513C62.8942 51.283 62.1369 51.2764 61.6605 51.7365L58.0177 55.3793C57.9044 55.4924 57.8148 55.627 57.7542 55.7752C57.6314 56.0722 57.6314 56.4058 57.7542 56.7029C57.8148 56.851 57.9044 56.9856 58.0177 57.0987L61.6605 60.7415C62.1369 61.2016 62.8942 61.1951 63.3626 60.7267C63.831 60.2583 63.8376 59.501 63.3774 59.0245L61.8074 57.4521H72.233C72.9036 57.4521 73.4472 56.9084 73.4472 56.2378C73.4472 55.5672 72.9036 55.0235 72.233 55.0235Z" fill="white"/>
</svg>
