<svg width="36" height="32" viewBox="0 0 36 32" fill="none" xmlns="http://www.w3.org/2000/svg">
<path d="M29.5071 21.6284C29.1248 21.759 28.7397 21.8806 28.3519 21.9933C28.4162 22.2549 28.4755 22.5181 28.5299 22.7828C29.4046 27.037 28.8327 30.4642 26.8805 31.5924C25.0114 32.675 21.946 31.5468 18.8537 28.8493C18.5496 28.5831 18.2518 28.309 17.9602 28.0269C17.7658 28.2143 17.5665 28.3977 17.3621 28.5771C14.121 31.4616 10.8724 32.6765 8.92255 31.5446C7.0534 30.4597 6.49789 27.2381 7.28518 23.206C7.36393 22.8072 7.4524 22.4102 7.5506 22.0149C7.09079 21.8841 6.64668 21.7443 6.22201 21.5963C2.4269 20.2692 0 18.1884 0 16.0307C0 13.8012 2.60484 11.5657 6.56219 10.2102C6.88319 10.101 7.20717 9.99958 7.53415 9.90587C7.42798 9.4827 7.33403 9.05479 7.25228 8.62214C6.50462 4.65956 7.0878 1.51416 8.9532 0.436037C10.8799 -0.677227 14.112 0.466694 17.2627 3.22555C17.5119 3.44387 17.7611 3.67439 18.0103 3.91714C18.3253 3.61259 18.6493 3.31701 18.9823 3.03041C22.0327 0.40015 25.045 -0.66227 26.9075 0.418842C28.8327 1.53584 29.4585 4.91526 28.6458 9.02663C28.5835 9.34064 28.5117 9.66114 28.4304 9.98812C28.6577 10.0554 28.8803 10.1249 29.0981 10.1967C33.2102 11.5627 35.8891 13.7713 35.8891 16.0284C35.8876 18.1967 33.3829 20.2908 29.5071 21.6284ZM19.8623 27.6904C22.5112 30.0014 24.9875 30.9136 26.1164 30.2616C27.3179 29.567 27.7852 26.7663 27.0301 23.0931C26.9802 22.8538 26.9264 22.6153 26.8686 22.3776C25.2878 22.7371 23.6847 22.9909 22.0701 23.1372C21.1457 24.4688 20.1323 25.7365 19.0369 26.9315C19.305 27.1917 19.5797 27.4447 19.8608 27.6904H19.8623ZM10.5966 14.187C10.921 13.5589 11.2602 12.9386 11.6141 12.326C11.9745 11.701 12.3501 11.0852 12.7408 10.4786C11.6299 10.5994 10.5259 10.7773 9.4332 11.0117C9.75021 12.0374 10.1405 13.1029 10.5966 14.187ZM10.5966 17.8004C10.148 18.8613 9.76815 19.9051 9.45638 20.9129C10.4807 21.1424 11.5722 21.3301 12.7102 21.4721C12.3289 20.877 11.962 20.2731 11.6096 19.6606C11.2572 19.048 10.9188 18.4279 10.5943 17.8004H10.5966ZM11.4115 15.9933C11.884 16.9787 12.3929 17.9452 12.9382 18.8927C13.483 19.8398 14.0629 20.7651 14.678 21.6688C15.7457 21.7495 16.8402 21.7921 17.946 21.7921C19.0518 21.7921 20.1531 21.7495 21.22 21.668C21.8286 20.7664 22.4051 19.8442 22.9494 18.9017C23.4937 17.9591 24.0093 16.9972 24.4963 16.0157C24.0158 15.0268 23.5014 14.0564 22.9531 13.1044C22.4093 12.1573 21.8361 11.2292 21.2335 10.3201C20.1681 10.2453 19.0653 10.2042 17.9438 10.2042C16.8223 10.2042 15.7404 10.2393 14.6945 10.3074C14.0749 11.214 13.4902 12.1434 12.9405 13.0954C12.3907 14.0474 11.8803 15.0134 11.4093 15.9933H11.4115ZM24.2802 12.3365C24.6416 12.9635 24.9885 13.5988 25.3209 14.2423C25.7767 13.209 26.1789 12.1529 26.5262 11.0782C25.4206 10.8293 24.3029 10.6383 23.1774 10.5062C23.5572 11.1089 23.9248 11.7189 24.2802 12.3365ZM25.306 17.7996C24.975 18.4302 24.6308 19.0532 24.2735 19.6688C23.9246 20.2759 23.5609 20.8755 23.1826 21.4677C24.3273 21.3226 25.4256 21.1297 26.4551 20.8942C26.1241 19.8441 25.7406 18.8113 25.306 17.7996ZM17.961 25.8332C18.7076 25.0175 19.4125 24.1645 20.0731 23.2777C18.66 23.345 17.246 23.345 15.8309 23.2777C16.5285 24.2003 17.2425 25.0564 17.961 25.8332ZM9.69413 30.216C10.8949 30.9128 13.5498 29.9169 16.3483 27.4295C16.527 27.2702 16.7072 27.1035 16.8866 26.9308C15.7856 25.7359 14.765 24.4694 13.8317 23.1394C12.2207 22.9943 10.6208 22.7445 9.04217 22.3918C8.95096 22.7586 8.86872 23.128 8.79545 23.4998C8.11882 26.9562 8.56666 29.5618 9.69413 30.216ZM7.94386 11.3862C7.6448 11.4715 7.34948 11.5639 7.05789 11.6636C5.30837 12.2617 3.86315 13.0423 2.87101 13.8924C1.98279 14.6542 1.5327 15.4146 1.5327 16.0307C1.5327 17.3398 3.48109 19.0101 6.73042 20.1428C7.13864 20.2849 7.55035 20.4147 7.96555 20.5323C8.44812 18.9815 9.03257 17.4642 9.71507 15.9903C9.02443 14.4961 8.43276 12.9581 7.94386 11.3862ZM16.2526 4.38292C14.8597 3.16275 13.4646 2.29771 12.2347 1.86182C11.1296 1.4708 10.2496 1.45958 9.71806 1.76687C8.5861 2.42107 8.11508 4.9474 8.75732 8.33579C8.83358 8.73454 8.9208 9.13329 9.019 9.53204C10.6134 9.18859 12.2293 8.95403 13.8556 8.82999C14.7981 7.49311 15.827 6.21937 16.9359 5.01694C16.7131 4.79787 16.4851 4.58703 16.2526 4.38292ZM18.0036 6.11899C17.2769 6.90477 16.5516 7.7743 15.8444 8.70887C16.5317 8.68196 17.2315 8.6685 17.9438 8.6685C18.675 8.6685 19.3987 8.6842 20.112 8.71635C19.4538 7.81531 18.7501 6.9484 18.0036 6.11899ZM27.3134 3.98143C27.0996 2.82705 26.6697 2.05696 26.1381 1.74893C25.0069 1.09248 22.5882 1.94556 19.9804 4.19526C19.6813 4.45246 19.3823 4.72834 19.078 5.01768C20.1653 6.2248 21.1702 7.50369 22.0858 8.84569C23.7211 8.98424 25.3448 9.2353 26.9456 9.59709C27.0189 9.30102 27.0837 9.01093 27.14 8.72682C27.4996 6.91001 27.5512 5.26666 27.3134 3.98143ZM28.6144 11.6554C28.4185 11.5903 28.2166 11.5275 28.0117 11.4662C27.5098 13.0244 26.9026 14.5466 26.1942 16.0225C26.876 17.4786 27.4595 18.9788 27.9407 20.5129C28.3078 20.406 28.6645 20.2938 29.0076 20.175C32.3287 19.0295 34.3549 17.3339 34.3549 16.0307C34.3549 14.64 32.1665 12.8352 28.6144 11.6554Z" fill="url(#paint0_linear_596_600)"/>
<defs>
<linearGradient id="paint0_linear_596_600" x1="26.3301" y1="30.8889" x2="2.43278" y2="1.50399" gradientUnits="userSpaceOnUse">
<stop stop-color="#C1292A"/>
<stop offset="1" stop-color="#D0631A"/>
</linearGradient>
</defs>
</svg>
