<svg width="40" height="38" viewBox="0 0 40 38" fill="none" xmlns="http://www.w3.org/2000/svg">
<path d="M34.0634 1.04561C34.2049 0.847826 34.224 0.587506 34.1129 0.371184C34.0017 0.154862 33.7789 0.0188447 33.5357 0.0187988H31.8202C31.6116 0.0190295 31.416 0.1201 31.2952 0.290105L27.8947 5.07041C27.774 5.24056 27.5783 5.34165 27.3697 5.34165C27.161 5.34165 26.9653 5.24056 26.8446 5.07041L23.4442 0.290105C23.3233 0.1201 23.1277 0.0190295 22.9191 0.0187988H21.2036C20.9609 0.0198141 20.739 0.156204 20.6285 0.372335C20.5179 0.588465 20.5373 0.848206 20.6785 1.04561L21.2802 1.88938L22.6121 3.76126L25.451 7.75231C25.6127 7.9782 25.6127 8.28192 25.451 8.50781L20.6759 15.2184C20.5344 15.4162 20.5153 15.6765 20.6265 15.8928C20.7376 16.1092 20.9604 16.2452 21.2036 16.2452H22.9217C23.1303 16.245 23.3259 16.1439 23.4468 15.9739L26.8472 11.1936C26.9677 11.0232 27.1635 10.9219 27.3723 10.9219C27.581 10.9219 27.7768 11.0232 27.8973 11.1936L31.2978 15.9739C31.4186 16.1439 31.6142 16.245 31.8228 16.2452H33.5357C33.7784 16.2442 34.0003 16.1078 34.1109 15.8917C34.2214 15.6755 34.2021 15.4158 34.0608 15.2184L29.2909 8.50976C29.1292 8.28387 29.1292 7.98014 29.2909 7.75426L34.0634 1.04561Z" fill="white"/>
<path d="M8.22269 0.0187988H6.27552C5.91706 0.0187988 5.62646 0.309391 5.62646 0.667856V10.4037C5.62646 12.0206 6.29664 13.5652 7.47746 14.6698C8.65828 15.7743 10.2441 16.34 11.8574 16.2322C14.9733 15.9605 17.3516 13.3306 17.3095 10.2031V0.667856C17.3095 0.309391 17.0189 0.0187988 16.6604 0.0187988H14.7133C14.3548 0.0187988 14.0642 0.309391 14.0642 0.667856V10.4037C14.0642 11.1364 13.7546 11.8351 13.2118 12.3272C12.6689 12.8194 11.9434 13.0592 11.2142 12.9876C9.85967 12.82 8.84947 11.658 8.87175 10.2934V0.667856C8.87175 0.309391 8.58116 0.0187988 8.22269 0.0187988V0.0187988Z" fill="white"/>
<path d="M16.6604 21.4377H14.7133C14.3548 21.4377 14.0642 21.7283 14.0642 22.0868V31.8227C14.0642 32.5554 13.7546 33.254 13.2118 33.7462C12.6689 34.2383 11.9434 34.4782 11.2142 34.4065C9.85967 34.2389 8.84947 33.077 8.87175 31.7123V22.0868C8.87175 21.7283 8.58116 21.4377 8.22269 21.4377H6.27552C5.91706 21.4377 5.62646 21.7283 5.62646 22.0868V31.8227C5.62646 33.4396 6.29664 34.9841 7.47746 36.0887C8.65828 37.1933 10.2441 37.759 11.8574 37.6512C14.9733 37.3795 17.3516 34.7495 17.3095 31.6221V22.0868C17.3095 21.7283 17.0189 21.4377 16.6604 21.4377Z" fill="white"/>
<path d="M33.5357 21.4377H21.8527C21.4942 21.4377 21.2036 21.7283 21.2036 22.0868V24.034C21.2036 24.3924 21.4942 24.683 21.8527 24.683H25.747C26.1055 24.683 26.3961 24.9736 26.3961 25.3321V33.7698C26.3961 34.1283 26.1055 34.4189 25.747 34.4189H21.8527C21.4942 34.4189 21.2036 34.7095 21.2036 35.0679V37.0151C21.2036 37.3736 21.4942 37.6642 21.8527 37.6642H33.5357C33.8942 37.6642 34.1847 37.3736 34.1847 37.0151V35.0679C34.1847 34.7095 33.8942 34.4189 33.5357 34.4189H29.6413C29.2829 34.4189 28.9923 34.1283 28.9923 33.7698V25.3321C28.9923 24.9736 29.2829 24.683 29.6413 24.683H33.5357C33.8942 24.683 34.1847 24.3924 34.1847 24.034V22.0868C34.1847 21.7283 33.8942 21.4377 33.5357 21.4377Z" fill="white"/>
<path d="M38.7284 18.1925H1.08314C0.724675 18.1925 0.434082 18.4831 0.434082 18.8416C0.434082 19.2 0.724675 19.4906 1.08314 19.4906H38.7284C39.0869 19.4906 39.3775 19.2 39.3775 18.8416C39.3775 18.4831 39.0869 18.1925 38.7284 18.1925Z" fill="white"/>
</svg>
