<svg width="65" height="65" viewBox="0 0 65 65" fill="none" xmlns="http://www.w3.org/2000/svg">
<path d="M63.3193 15.8569H60.8596C61.3344 14.0218 61.3828 12.1023 61.0009 10.2456C60.6191 8.38885 59.8172 6.6442 58.6568 5.14534C57.4963 3.64647 56.0081 2.43319 54.3062 1.59847C52.6043 0.763748 50.7339 0.329757 48.8383 0.329757C46.9428 0.329757 45.0724 0.763748 43.3705 1.59847C41.6686 2.43319 40.1804 3.64647 39.0199 5.14534C37.8595 6.6442 37.0576 8.38885 36.6758 10.2456C36.2939 12.1023 36.3423 14.0218 36.817 15.8569H24.4268L10.709 2.13915C10.1381 1.56362 9.45922 1.1065 8.71121 0.794025C7.96321 0.481548 7.16086 0.319863 6.35022 0.318249C5.53957 0.316636 4.73659 0.475127 3.98735 0.784625C3.23811 1.09412 2.55736 1.54854 1.98418 2.12178C1.411 2.69503 0.95667 3.37583 0.647261 4.12511C0.337852 4.87438 0.179457 5.67739 0.181166 6.48803C0.182876 7.29868 0.344656 8.10101 0.657223 8.84897C0.969789 9.59694 1.42699 10.2758 2.00258 10.8466L2.45891 11.3019C1.01239 12.914 0.208184 15.0011 0.198997 17.1669V56.2125C0.197908 57.2999 0.411284 58.3769 0.82691 59.3817C1.24254 60.3865 1.85225 61.2995 2.62116 62.0684C3.39007 62.8373 4.30307 63.447 5.3079 63.8627C6.31273 64.2783 7.38967 64.4917 8.47707 64.4906H63.3193C63.5937 64.4906 63.8569 64.3816 64.051 64.1875C64.245 63.9935 64.354 63.7303 64.354 63.4558V16.8917C64.354 16.6173 64.245 16.3541 64.051 16.16C63.8569 15.966 63.5937 15.8569 63.3193 15.8569ZM38.5544 11.5275C38.8598 8.90194 40.1583 6.49277 42.1837 4.7943C44.2091 3.09583 46.8076 2.23685 49.4463 2.39358C52.0849 2.55031 54.5635 3.71088 56.3735 5.63717C58.1836 7.56345 59.1878 10.1094 59.1802 12.7527C59.1885 15.0635 58.4134 17.309 56.9814 19.1226C55.1428 21.438 54.0996 24.2842 54.0064 27.2393H51.9369V21.0307H52.9717C53.5857 21.0307 54.1858 20.8487 54.6963 20.5076C55.2068 20.1665 55.6047 19.6816 55.8397 19.1144C56.0746 18.5472 56.1361 17.923 56.0163 17.3208C55.8965 16.7187 55.6009 16.1655 55.1667 15.7314C54.7326 15.2973 54.1795 15.0016 53.5773 14.8818C52.9751 14.762 52.351 14.8235 51.7837 15.0585C51.2165 15.2934 50.7317 15.6913 50.3906 16.2018C50.0495 16.7123 49.8674 17.3125 49.8674 17.9265V18.9612H47.7979V17.9265C47.7979 17.3125 47.6158 16.7123 47.2747 16.2018C46.9336 15.6913 46.4488 15.2934 45.8816 15.0585C45.3143 14.8235 44.6902 14.762 44.088 14.8818C43.4858 15.0016 42.9327 15.2973 42.4986 15.7314C42.0644 16.1655 41.7688 16.7187 41.649 17.3208C41.5292 17.923 41.5907 18.5472 41.8256 19.1144C42.0606 19.6816 42.4585 20.1665 42.969 20.5076C43.4795 20.8487 44.0796 21.0307 44.6936 21.0307H45.7284V27.2393H43.6589C43.5532 24.2542 42.4907 21.3822 40.628 19.0471C38.9814 16.9075 38.2371 14.2087 38.5544 11.5275ZM50.9022 33.4478C50.9022 33.9967 50.6841 34.5231 50.296 34.9112C49.9079 35.2993 49.3815 35.5173 48.8326 35.5173C48.2838 35.5173 47.7574 35.2993 47.3693 34.9112C46.9812 34.5231 46.7631 33.9967 46.7631 33.4478H50.9022ZM44.6936 31.3783C44.4192 31.3783 44.156 31.2693 43.9619 31.0752C43.7679 30.8812 43.6589 30.618 43.6589 30.3436V29.3088H54.0064V30.3436C54.0064 30.618 53.8974 30.8812 53.7034 31.0752C53.5093 31.2693 53.2461 31.3783 52.9717 31.3783H44.6936ZM45.7284 18.9612H44.6936C44.489 18.9612 44.2889 18.9005 44.1187 18.7868C43.9486 18.6731 43.8159 18.5115 43.7376 18.3224C43.6593 18.1334 43.6388 17.9253 43.6787 17.7246C43.7187 17.5239 43.8172 17.3395 43.9619 17.1948C44.1066 17.0501 44.291 16.9515 44.4917 16.9116C44.6925 16.8717 44.9005 16.8921 45.0896 16.9705C45.2787 17.0488 45.4403 17.1814 45.554 17.3516C45.6677 17.5217 45.7284 17.7218 45.7284 17.9265V18.9612ZM49.8674 27.2393H47.7979V21.0307H49.8674V27.2393ZM51.9369 18.9612V17.9265C51.9369 17.7218 51.9976 17.5217 52.1113 17.3516C52.225 17.1814 52.3866 17.0488 52.5757 16.9705C52.7648 16.8921 52.9728 16.8717 53.1736 16.9116C53.3743 16.9515 53.5587 17.0501 53.7034 17.1948C53.8481 17.3395 53.9466 17.5239 53.9866 17.7246C54.0265 17.9253 54.006 18.1334 53.9277 18.3224C53.8494 18.5115 53.7167 18.6731 53.5466 18.7868C53.3764 18.9005 53.1763 18.9612 52.9717 18.9612H51.9369ZM30.7337 30.8692L27.8653 30.0093L29.8728 28.0019L30.7337 30.8692ZM25.6137 29.3336L22.9637 28.5389V26.2045H25.0332C25.3076 26.2045 25.5708 26.0955 25.7649 25.9015C25.9589 25.7074 26.068 25.4442 26.068 25.1698V23.1002H28.4024L29.1971 25.7513L25.6137 29.3336ZM9.94021 15.8569L12.0987 13.6984L22.5353 24.135H21.9289C21.6545 24.135 21.3913 24.244 21.1972 24.4381C21.0032 24.6321 20.8942 24.8953 20.8942 25.1698V26.8099L9.94021 15.8569ZM8.47707 14.3938L6.83594 12.7527L12.6161 6.9725L14.2572 8.61363L8.47707 14.3938ZM25.0332 21.0307C24.7588 21.0307 24.4956 21.1397 24.3015 21.3338C24.1075 21.5279 23.9984 21.7911 23.9984 22.0655V22.6719L13.5619 12.2353L15.7204 10.0768L26.6743 21.0307H25.0332ZM6.35581 2.40508C6.89277 2.40362 7.42469 2.50869 7.92077 2.71419C8.41686 2.91969 8.86725 3.22155 9.24589 3.6023L11.153 5.50936L5.37279 11.2885L3.46573 9.38142C2.89399 8.80994 2.5046 8.08172 2.34682 7.28889C2.18904 6.49606 2.26997 5.67425 2.57936 4.92742C2.88874 4.18059 3.41269 3.54231 4.08492 3.09332C4.75714 2.64433 5.54743 2.40482 6.35581 2.40508ZM3.92413 12.7672L14.6856 23.5286V50.7366C14.5594 50.5938 14.4273 50.4558 14.2893 50.3227C13.5117 49.5473 12.586 48.9364 11.5674 48.5261C10.5488 48.1158 9.45808 47.9146 8.36014 47.9345C7.2022 47.9562 6.06172 48.2208 5.01242 48.7109C3.96312 49.2011 3.02834 49.906 2.26851 50.78V17.1669C2.27432 15.5492 2.86198 13.9874 3.92413 12.7672ZM62.2845 62.4211H8.47707C7.65429 62.4212 6.83971 62.2577 6.08066 61.9402C5.32162 61.6227 4.63325 61.1575 4.05557 60.5716C3.47788 59.9858 3.02241 59.2909 2.71563 58.5275C2.40884 57.7641 2.25686 56.9473 2.26851 56.1246C2.32025 54.5179 2.98156 52.9911 4.11815 51.8543C5.25475 50.7175 6.7814 50.056 8.38808 50.004H8.47707C10.1237 50.004 11.7028 50.6581 12.8672 51.8224C14.0315 52.9867 14.6856 54.5659 14.6856 56.2125C14.6856 56.487 14.7946 56.7501 14.9887 56.9442C15.1827 57.1383 15.4459 57.2473 15.7204 57.2473C15.9948 57.2473 16.258 57.1383 16.4521 56.9442C16.6461 56.7501 16.7551 56.487 16.7551 56.2125V25.5982L21.1974 30.0404C21.3185 30.1616 21.4678 30.2508 21.632 30.3001L31.9795 33.4044C32.0759 33.433 32.1759 33.4477 32.2765 33.4478C32.4378 33.4478 32.5969 33.4102 32.741 33.3378C32.8851 33.2654 33.0103 33.1603 33.1066 33.0309C33.2029 32.9016 33.2677 32.7515 33.2957 32.5926C33.3236 32.4338 33.3141 32.2706 33.2678 32.1161L30.1635 21.7685C30.1143 21.6044 30.025 21.455 29.9038 21.3339L26.4964 17.9265H37.5538C37.9389 18.7707 38.4175 19.569 38.9807 20.3064C40.6285 22.3557 41.5464 24.8956 41.5893 27.5249V30.3436C41.5893 31.1669 41.9164 31.9564 42.4986 32.5386C43.0807 33.1208 43.8703 33.4478 44.6936 33.4478C44.6936 34.5456 45.1297 35.5984 45.9059 36.3746C46.6821 37.1508 47.7349 37.5869 48.8326 37.5869C49.9304 37.5869 50.9832 37.1508 51.7594 36.3746C52.5356 35.5984 52.9717 34.5456 52.9717 33.4478C53.795 33.4478 54.5846 33.1208 55.1667 32.5386C55.7489 31.9564 56.076 31.1669 56.076 30.3436V27.5197C56.1047 24.9304 56.9965 22.4248 58.6101 20.3995C59.2072 19.6367 59.7132 18.8067 60.1177 17.9265H62.2845V62.4211Z" fill="white"/>
<path d="M40.4108 52.7139C40.6922 52.1772 40.9253 51.6166 41.1072 51.0386H42.6242C42.8986 51.0386 43.1618 50.9296 43.3558 50.7355C43.5499 50.5415 43.6589 50.2783 43.6589 50.0038V45.8648C43.6589 45.5904 43.5499 45.3272 43.3558 45.1331C43.1618 44.9391 42.8986 44.83 42.6242 44.83H41.1072C40.9253 44.252 40.6922 43.6914 40.4108 43.1548L41.4859 42.0807C41.6799 41.8866 41.7889 41.6235 41.7889 41.3491C41.7889 41.0747 41.6799 40.8116 41.4859 40.6175L38.5586 37.6902C38.3645 37.4962 38.1014 37.3872 37.827 37.3872C37.5526 37.3872 37.2895 37.4962 37.0954 37.6902L36.0214 38.7633C35.4846 38.4827 34.9239 38.2504 34.3461 38.0689V36.552C34.3461 36.2775 34.2371 36.0143 34.043 35.8203C33.849 35.6262 33.5858 35.5172 33.3113 35.5172H29.1723C28.8979 35.5172 28.6347 35.6262 28.4406 35.8203C28.2466 36.0143 28.1375 36.2775 28.1375 36.552V38.0689C27.5596 38.2507 26.999 38.4834 26.4623 38.7643L25.3882 37.6902C25.1905 37.5033 24.9287 37.3991 24.6566 37.3991C24.3845 37.3991 24.1227 37.5033 23.925 37.6902L20.9977 40.6175C20.8037 40.8116 20.6947 41.0747 20.6947 41.3491C20.6947 41.6235 20.8037 41.8866 20.9977 42.0807L22.0718 43.1548C21.7907 43.6914 21.558 44.2521 21.3764 44.83H19.8595C19.585 44.83 19.3218 44.9391 19.1278 45.1331C18.9337 45.3272 18.8247 45.5904 18.8247 45.8648V50.0038C18.8247 50.2783 18.9337 50.5415 19.1278 50.7355C19.3218 50.9296 19.585 51.0386 19.8595 51.0386H21.3764C21.5583 51.6166 21.7914 52.1772 22.0728 52.7139L20.9977 53.7879C20.8037 53.982 20.6947 54.2451 20.6947 54.5195C20.6947 54.7939 20.8037 55.057 20.9977 55.2511L23.925 58.1784C24.1191 58.3724 24.3822 58.4814 24.6566 58.4814C24.931 58.4814 25.1941 58.3724 25.3882 58.1784L26.4623 57.1043C26.9989 57.3854 27.5596 57.6181 28.1375 57.7997V59.3167C28.1375 59.5911 28.2466 59.8543 28.4406 60.0483C28.6347 60.2424 28.8979 60.3514 29.1723 60.3514H33.3113C33.5858 60.3514 33.849 60.2424 34.043 60.0483C34.2371 59.8543 34.3461 59.5911 34.3461 59.3167V57.7997C34.9241 57.6178 35.4847 57.3847 36.0214 57.1033L37.0954 58.1784C37.2931 58.3654 37.5549 58.4695 37.827 58.4695C38.0991 58.4695 38.3609 58.3654 38.5586 58.1784L41.4859 55.2511C41.6799 55.057 41.7889 54.7939 41.7889 54.5195C41.7889 54.2451 41.6799 53.982 41.4859 53.7879L40.4108 52.7139ZM39.3129 49.7741C39.1058 50.681 38.7464 51.5462 38.2502 52.3331C38.1248 52.5316 38.0706 52.7668 38.0966 53.0002C38.1225 53.2335 38.2271 53.4511 38.393 53.6172L39.2953 54.5195L37.8322 55.9827L36.9299 55.0804C36.764 54.9145 36.5466 54.8099 36.3135 54.7838C36.0804 54.7576 35.8453 54.8115 35.6468 54.9365C34.86 55.4336 33.9943 55.7929 33.0868 55.9992C32.8581 56.0513 32.6539 56.1795 32.5077 56.3628C32.3614 56.5461 32.2818 56.7736 32.2817 57.0081V58.2819H30.2071V57.0081C30.207 56.7736 30.1274 56.5461 29.9811 56.3628C29.8348 56.1795 29.6307 56.0513 29.402 55.9992C28.4945 55.7929 27.6288 55.4336 26.842 54.9365C26.6435 54.8115 26.4084 54.7576 26.1753 54.7838C25.9421 54.8099 25.7248 54.9145 25.5589 55.0804L24.6566 55.9827L23.1935 54.5195L24.0958 53.6172C24.2617 53.4511 24.3663 53.2335 24.3922 53.0002C24.4182 52.7668 24.364 52.5316 24.2386 52.3331C23.7424 51.5462 23.383 50.681 23.1759 49.7741C23.1238 49.5455 22.9956 49.3413 22.8123 49.195C22.629 49.0487 22.4015 48.9691 22.167 48.9691H20.8942V46.8996H22.167C22.4015 46.8995 22.629 46.8199 22.8123 46.6736C22.9956 46.5274 23.1238 46.3232 23.1759 46.0945C23.383 45.1876 23.7424 44.3224 24.2386 43.5356C24.364 43.3371 24.4182 43.1018 24.3922 42.8685C24.3663 42.6351 24.2617 42.4175 24.0958 42.2514L23.1935 41.3491L24.6566 39.886L25.5589 40.7883C25.7248 40.9541 25.9421 41.0587 26.1753 41.0849C26.4084 41.111 26.6435 41.0571 26.842 40.9321C27.6288 40.435 28.4945 40.0756 29.402 39.8694C29.6308 39.8173 29.8351 39.689 29.9814 39.5055C30.1277 39.3219 30.2073 39.0942 30.2071 38.8595V37.5867H32.2766V38.8595C32.2763 39.0942 32.3559 39.3219 32.5022 39.5055C32.6485 39.689 32.8528 39.8173 33.0816 39.8694C33.9891 40.0756 34.8549 40.435 35.6416 40.9321C35.8401 41.0571 36.0752 41.111 36.3083 41.0849C36.5415 41.0587 36.7588 40.9541 36.9247 40.7883L37.827 39.886L39.2902 41.3491L38.3878 42.2514C38.2219 42.4175 38.1173 42.6351 38.0914 42.8685C38.0654 43.1018 38.1196 43.3371 38.2451 43.5356C38.7431 44.3221 39.1042 45.1873 39.3129 46.0945C39.3648 46.3223 39.4922 46.5258 39.6744 46.672C39.8567 46.8182 40.083 46.8984 40.3166 46.8996H41.5894V48.9691H40.3166C40.083 48.9703 39.8567 49.0504 39.6744 49.1966C39.4922 49.3428 39.3648 49.5463 39.3129 49.7741Z" fill="white"/>
<path d="M31.2413 41.7259C30.0133 41.7259 28.813 42.09 27.792 42.7722C26.771 43.4544 25.9752 44.4241 25.5053 45.5585C25.0354 46.693 24.9125 47.9413 25.152 49.1457C25.3916 50.35 25.9829 51.4563 26.8512 52.3246C27.7194 53.1928 28.8257 53.7841 30.03 54.0237C31.2344 54.2633 32.4827 54.1403 33.6172 53.6704C34.7516 53.2005 35.7213 52.4047 36.4035 51.3837C37.0857 50.3627 37.4498 49.1624 37.4498 47.9344C37.4482 46.2883 36.7935 44.7101 35.6296 43.5461C34.4656 42.3822 32.8874 41.7275 31.2413 41.7259ZM31.2413 52.0735C30.4226 52.0735 29.6224 51.8307 28.9417 51.3759C28.2611 50.9211 27.7306 50.2747 27.4173 49.5184C27.104 48.7621 27.0221 47.9299 27.1818 47.127C27.3415 46.3241 27.7357 45.5866 28.3145 45.0077C28.8934 44.4288 29.6309 44.0346 30.4338 43.8749C31.2367 43.7152 32.0689 43.7972 32.8252 44.1105C33.5815 44.4237 34.2279 44.9543 34.6827 45.6349C35.1376 46.3156 35.3803 47.1158 35.3803 47.9344C35.3803 49.0322 34.9442 50.085 34.168 50.8612C33.3918 51.6374 32.339 52.0735 31.2413 52.0735Z" fill="white"/>
<path d="M55.0406 12.7524H57.1101C57.1076 10.5577 56.2347 8.45358 54.6828 6.90168C53.1309 5.34977 51.0268 4.47683 48.832 4.47437V6.54388C50.4781 6.54553 52.0564 7.20017 53.2203 8.36414C54.3843 9.52811 55.0389 11.1063 55.0406 12.7524Z" fill="white"/>
<path d="M53.4885 44.8301C52.528 44.8301 51.6068 44.4485 50.9276 43.7693C50.2484 43.0902 49.8668 42.169 49.8668 41.2084V39.6563H47.7973V41.2084C47.799 42.7173 48.3991 44.164 49.466 45.2309C50.533 46.2978 51.9796 46.898 53.4885 46.8996C54.7235 46.8996 55.9078 47.3902 56.7811 48.2635C57.6543 49.1367 58.1449 50.3211 58.1449 51.556C58.1449 52.791 57.6543 53.9754 56.7811 54.8486C55.9078 55.7219 54.7235 56.2124 53.4885 56.2124H42.6235V58.282H53.4885C55.2723 58.282 56.9831 57.5733 58.2445 56.312C59.5058 55.0506 60.2144 53.3399 60.2144 51.556C60.2144 49.7722 59.5058 48.0614 58.2445 46.8001C56.9831 45.5387 55.2723 44.8301 53.4885 44.8301Z" fill="white"/>
</svg>
