<svg width="31" height="31" viewBox="0 0 31 31" fill="none" xmlns="http://www.w3.org/2000/svg">
<g clip-path="url(#clip0_596_586)">
<path d="M31 2.78516C31 1.28038 29.7802 0.0605469 28.2754 0.0605469H2.72461C1.21984 0.0605469 0 1.28038 0 2.78516V8.23438L0.605469 8.83984H30.3945C30.631 8.60341 30.7636 8.47081 31 8.23438V2.78516Z" fill="#0052C2"/>
<path d="M31 2.78516V8.23438C30.7633 8.47111 30.6313 8.60311 30.3945 8.83984H15.5V0.0605469H28.2754C29.78 0.0605469 31 1.28057 31 2.78516Z" fill="#003481"/>
<path d="M26.3984 3.69336H20.9492C20.4476 3.69336 20.041 4.09999 20.041 4.60156C20.041 5.10313 20.4476 5.50977 20.9492 5.50977H26.3984C26.9 5.50977 27.3066 5.10313 27.3066 4.60156C27.3066 4.09999 26.9 3.69336 26.3984 3.69336Z" fill="#0052C2"/>
<path d="M11.8672 5.50977C12.3688 5.50977 12.7754 5.10315 12.7754 4.60156C12.7754 4.09998 12.3688 3.69336 11.8672 3.69336C11.3656 3.69336 10.959 4.09998 10.959 4.60156C10.959 5.10315 11.3656 5.50977 11.8672 5.50977Z" fill="#F03800"/>
<path d="M8.23438 5.50977C8.73596 5.50977 9.14258 5.10315 9.14258 4.60156C9.14258 4.09998 8.73596 3.69336 8.23438 3.69336C7.73279 3.69336 7.32617 4.09998 7.32617 4.60156C7.32617 5.10315 7.73279 5.50977 8.23438 5.50977Z" fill="#FDBF00"/>
<path d="M4.60156 5.50977C5.10315 5.50977 5.50977 5.10315 5.50977 4.60156C5.50977 4.09998 5.10315 3.69336 4.60156 3.69336C4.09998 3.69336 3.69336 4.09998 3.69336 4.60156C3.69336 5.10315 4.09998 5.50977 4.60156 5.50977Z" fill="#37D742"/>
<path d="M0 8.23438V28.2148C0 29.7172 1.22226 30.9395 2.72461 30.9395H28.2754C29.7777 30.9395 31 29.7172 31 28.2148V8.23438H0Z" fill="#E0F4FF"/>
<path d="M31 8.23438V28.2148C31 29.717 29.7776 30.9395 28.2754 30.9395H15.5V8.23438H31Z" fill="#B8E0F5"/>
<path d="M18.5826 11.9406C18.1216 11.743 17.5877 11.9566 17.3901 12.4176L11.9409 25.1324C11.7432 25.5934 11.9569 26.1274 12.4179 26.325C12.879 26.5226 13.4129 26.3089 13.6104 25.848L19.0596 13.1331C19.2572 12.6721 19.0436 12.1382 18.5826 11.9406Z" fill="#FF641A"/>
<path d="M19.0596 13.1332L15.5 21.4391V16.8266L17.3897 12.4176C17.5877 11.9568 18.1211 11.7431 18.5824 11.9405C19.0432 12.1385 19.2569 12.6719 19.0596 13.1332Z" fill="#F03800"/>
<path d="M10.6179 22.0564L6.96338 19.1328L10.6179 16.2092C11.0096 15.8958 11.0731 15.3243 10.7597 14.9327C10.4463 14.541 9.87472 14.4775 9.48322 14.7909L4.94221 18.4237C4.48817 18.7868 4.48786 19.4786 4.94221 19.842L9.48322 23.4749C9.8749 23.7882 10.4465 23.7247 10.7597 23.3331C11.0731 22.9413 11.0096 22.3698 10.6179 22.0564Z" fill="#FF641A"/>
<path d="M26.0576 18.4236L21.5166 14.7908C21.1249 14.4774 20.5533 14.5409 20.2401 14.9326C19.9267 15.3242 19.9902 15.8958 20.3819 16.2091L24.0364 19.1328L20.3819 22.0564C19.9902 22.3697 19.9267 22.9412 20.2401 23.3329C20.5538 23.725 21.1254 23.7877 21.5166 23.4747L26.0576 19.8419C26.5116 19.4788 26.5119 18.787 26.0576 18.4236Z" fill="#F03800"/>
</g>
<defs>
<clipPath id="clip0_596_586">
<rect width="31" height="31" fill="white"/>
</clipPath>
</defs>
</svg>
