<svg width="81" height="48" viewBox="0 0 81 48" fill="none" xmlns="http://www.w3.org/2000/svg">
<path d="M69.0039 11.9909C61.3989 4.38653 51.2877 0.198486 40.533 0.198486C36.1148 0.198486 31.772 0.909575 27.6251 2.31209C26.9657 2.53511 26.6119 3.2504 26.8349 3.9099C27.0579 4.56956 27.7741 4.923 28.4327 4.70014C32.3189 3.38586 36.3901 2.71948 40.533 2.71948C47.7291 2.71948 54.4598 4.74586 60.1885 8.25475L57.9095 11.7083C52.8361 8.63088 46.8881 6.85744 40.5333 6.85744C34.1755 6.85744 28.2245 8.63256 23.1495 11.7129C22.387 10.5603 21.6247 9.40331 20.8643 8.24281C21.7062 7.72971 22.5717 7.24534 23.4618 6.79307C24.0823 6.47778 24.3299 5.71896 24.0146 5.09829C23.6993 4.47762 22.9406 4.2304 22.3198 4.54552C20.9882 5.22216 19.7 5.9714 18.4583 6.78652C18.4459 6.79408 18.4329 6.80047 18.4205 6.80853C18.407 6.81727 18.3951 6.82736 18.3822 6.83643C13.5693 10.0115 9.47281 14.1937 6.38963 19.1145C2.38646 25.5039 0.270508 32.8855 0.270508 40.4613C0.270508 41.1574 0.834706 41.7218 1.53101 41.7218H21.7539C22.4502 41.7218 23.0144 41.1574 23.0144 40.4613C23.0144 39.7652 22.4502 39.2008 21.7539 39.2008H9.47836C9.87432 29.3245 14.8992 20.6201 22.439 15.2031C24.0468 17.6229 25.6478 20.0167 27.2206 22.3679C29.9945 26.5148 32.8569 30.7948 35.7365 35.1862C35.0327 35.844 34.4658 36.6462 34.076 37.5588C33.8485 38.0917 33.6898 38.6421 33.5991 39.1998H27.3818C26.6855 39.1998 26.1213 39.7642 26.1213 40.4603C26.1213 41.1564 26.6855 41.7208 27.3818 41.7208H33.6542C33.7387 42.1305 33.8587 42.5357 34.0179 42.9322C34.7169 44.6725 36.0517 46.0365 37.7765 46.773C38.6624 47.1512 39.5968 47.3406 40.5321 47.3406C41.4175 47.3406 42.3037 47.1708 43.1499 46.8308C44.7666 46.1816 46.0082 44.994 46.7553 43.5577L49.9329 41.7208H72.8605C72.8659 41.7208 72.8713 41.7216 72.8768 41.7216C72.8824 41.7216 72.8876 41.7209 72.8931 41.7208H79.5363C80.2326 41.7208 80.7968 41.1564 80.7968 40.4603C80.7968 29.7061 76.6086 19.5955 69.0039 11.9909ZM6.95568 39.2008H2.81201C3.20259 27.257 9.13063 16.4013 18.7563 9.62499C19.5181 10.7877 20.2817 11.9465 21.0452 13.1008C12.8264 18.9717 7.35433 28.4489 6.95568 39.2008ZM42.2106 44.4919C41.095 44.9399 39.8718 44.9265 38.7664 44.4547C37.6611 43.9828 36.8054 43.1085 36.3575 41.993C35.9095 40.8776 35.9226 39.6544 36.3947 38.549C36.8666 37.4435 37.7409 36.588 38.8562 36.14C39.4044 35.9198 39.9705 35.8156 40.5278 35.8156C42.3121 35.8156 44.0047 36.8842 44.7094 38.6386C45.6343 40.9413 44.5131 43.567 42.2106 44.4919ZM47.5521 40.1855C47.5376 39.3552 47.3763 38.5142 47.0489 37.699C46.7217 36.8845 46.257 36.1659 45.6938 35.5566L60.0078 32.0566C60.0935 32.036 60.3539 31.9723 60.4863 32.3025C60.6182 32.6318 60.3868 32.7655 60.3105 32.8096L47.5521 40.1855ZM54.2937 39.2001L61.5722 34.9922C62.8671 34.2437 63.3828 32.7518 62.826 31.3639C62.269 29.9755 60.8653 29.2533 59.4102 29.6076L47.1393 32.6079L52.1346 25.0372C52.5179 24.4562 52.3578 23.6743 51.7768 23.2908C51.1959 22.9073 50.4139 23.0674 50.0304 23.6486L43.5377 33.4884L42.7879 33.6717C41.254 33.1499 39.5345 33.1506 37.9164 33.8003C37.8967 33.8082 37.8779 33.8173 37.8584 33.8254C34.9676 29.417 32.0974 25.1249 29.3157 20.9664C27.746 18.6197 26.1482 16.2305 24.5438 13.8162C29.2184 11.0004 34.6896 9.3786 40.5331 9.3786C46.3753 9.3786 51.8455 10.9999 56.5196 13.8145L53.3569 18.6071C52.9736 19.1881 53.1337 19.97 53.7147 20.3535C53.9285 20.4945 54.1695 20.5621 54.4079 20.5621C54.8173 20.5621 55.2186 20.3629 55.4611 19.9957L58.625 15.2013C66.1663 20.6179 71.1921 29.3229 71.5884 39.2001H54.2937ZM74.1111 39.2001C73.7121 28.4454 68.237 18.9659 60.0144 13.0957L62.2932 9.64247C71.6348 16.2572 77.8528 27.0047 78.2549 39.2001H74.1111Z" fill="white"/>
</svg>
