<svg width="36" height="36" viewBox="0 0 36 36" fill="none" xmlns="http://www.w3.org/2000/svg">
<g clip-path="url(#clip0_596_559)">
<path d="M36 36H0V0H36V36Z" fill="#FF80E4"/>
<path d="M36 36H18V0H36V36Z" fill="#FF5AD4"/>
<path d="M33.8906 33.8906H2.10938V2.10938H33.8906V33.8906Z" fill="#7F1363"/>
<path d="M33.8906 33.8906H18V2.10938H33.8906V33.8906Z" fill="#661054"/>
<path d="M10.2979 12.7688L13.2847 17.2238L16.2547 12.7688H18.7691L14.4997 18.8438L18.6341 24.75H16.1197L13.2847 20.4638L10.4329 24.75H7.90167L12.036 18.8438L7.7666 12.7688H10.2979Z" fill="#FF80E4"/>
<path d="M22.9036 24.9188C20.3075 24.9188 18.7017 22.7549 18.7017 20.3288C18.7017 17.5781 20.5536 15.7556 22.6504 15.7556C24.4266 15.7556 25.3446 16.9538 25.6372 17.46V12.4313H27.8985V22.1513C27.8985 22.3875 28.2302 22.8152 28.4216 22.8263V24.75C28.0276 24.8286 27.707 24.8681 27.4596 24.8681C25.8269 24.8681 25.9747 23.2144 25.9747 23.2144C25.6484 23.7771 24.6757 24.9188 22.9036 24.9188ZM23.4942 22.995C24.9131 22.995 25.5585 21.7238 25.6373 21.51V19.4007C25.5471 19.1533 24.7372 17.6794 23.3592 17.6794C21.8193 17.6794 21.0474 19.2071 21.0474 20.3794C21.0474 21.668 21.995 22.995 23.4942 22.995Z" fill="#FF5AD4"/>
<path d="M18 12.7688V13.8635L18.7693 12.7688H18Z" fill="#FF5AD4"/>
<path d="M18 24.7501H18.6343L18 23.8439V24.7501Z" fill="#FF5AD4"/>
</g>
<defs>
<clipPath id="clip0_596_559">
<rect width="36" height="36" fill="white"/>
</clipPath>
</defs>
</svg>
